<svg width="113" height="30" viewBox="0 0 113 30" fill="none" xmlns="http://www.w3.org/2000/svg">
<rect width="113" height="30" rx="6" fill="#2B3232"/>
<path d="M13.4993 22.3333C12.9952 22.3333 12.5637 22.154 12.205 21.7952C11.8457 21.4359 11.666 21.0042 11.666 20.5V17.75H13.4993V20.5H24.4993V17.75H26.3327V20.5C26.3327 21.0042 26.1533 21.4359 25.7946 21.7952C25.4353 22.154 25.0035 22.3333 24.4993 22.3333H13.4993ZM18.0827 18.6667V11.1958L15.6993 13.5792L14.416 12.25L18.9993 7.66666L23.5827 12.25L22.2993 13.5792L19.916 11.1958V18.6667H18.0827Z" fill="white"/>
<path d="M34.4613 20L37.4853 10.2H39.5573L42.5813 20H41.3633L40.6073 17.522H36.4353L35.6793 20H34.4613ZM36.7293 16.458H40.2993L38.6193 10.914H38.4233L36.7293 16.458ZM46.6117 20C46.2197 20 45.9164 19.8927 45.7017 19.678C45.4964 19.4633 45.3937 19.1693 45.3937 18.796V14.12H43.3357V13.154H45.3937V10.718H46.4997V13.154H48.2917V14.12H46.4997V18.628C46.4997 18.908 46.635 19.048 46.9057 19.048H48.4317V20H46.6117ZM51.1197 20C50.7277 20 50.4244 19.8927 50.2097 19.678C49.995 19.4633 49.8877 19.1693 49.8877 18.796V14.12H48.2917V13.154H49.8877V10.718H50.9937V13.154H53.2477V14.12H50.9937V18.628C50.9937 18.908 51.1337 19.048 51.4137 19.048H52.9397V20H51.1197ZM57.1429 20.196C56.6669 20.196 56.2329 20.112 55.8409 19.944C55.4489 19.776 55.1409 19.5333 54.9169 19.216C54.6929 18.8987 54.5809 18.5113 54.5809 18.054C54.5809 17.5873 54.6929 17.2047 54.9169 16.906C55.1409 16.598 55.4489 16.3693 55.8409 16.22C56.2329 16.0613 56.6715 15.982 57.1569 15.982H59.4669V15.478C59.4669 14.9927 59.3222 14.61 59.0329 14.33C58.7529 14.05 58.3329 13.91 57.7729 13.91C57.2222 13.91 56.7929 14.0453 56.4849 14.316C56.1769 14.5773 55.9669 14.932 55.8549 15.38L54.8189 15.044C54.9309 14.6613 55.1082 14.316 55.3509 14.008C55.5935 13.6907 55.9155 13.4387 56.3169 13.252C56.7275 13.056 57.2175 12.958 57.7869 12.958C58.6642 12.958 59.3455 13.1867 59.8309 13.644C60.3162 14.092 60.5589 14.7267 60.5589 15.548V18.642C60.5589 18.922 60.6895 19.062 60.9509 19.062H61.5809V20H60.6149C60.3069 20 60.0595 19.916 59.8729 19.748C59.6862 19.5707 59.5929 19.3373 59.5929 19.048V18.978H59.4249C59.3222 19.1553 59.1822 19.342 59.0049 19.538C58.8369 19.7247 58.6035 19.8787 58.3049 20C58.0062 20.1307 57.6189 20.196 57.1429 20.196ZM57.2689 19.244C57.9222 19.244 58.4495 19.0527 58.8509 18.67C59.2615 18.278 59.4669 17.732 59.4669 17.032V16.878H57.1989C56.7602 16.878 56.3962 16.976 56.1069 17.172C55.8269 17.3587 55.6869 17.6433 55.6869 18.026C55.6869 18.4087 55.8315 18.7073 56.1209 18.922C56.4195 19.1367 56.8022 19.244 57.2689 19.244ZM66.0542 20.196C65.3915 20.196 64.7942 20.056 64.2622 19.776C63.7395 19.4867 63.3242 19.076 63.0162 18.544C62.7175 18.012 62.5682 17.382 62.5682 16.654V16.5C62.5682 15.7627 62.7175 15.1327 63.0162 14.61C63.3242 14.078 63.7395 13.672 64.2622 13.392C64.7942 13.1027 65.3915 12.958 66.0542 12.958C66.7075 12.958 67.2629 13.0793 67.7202 13.322C68.1869 13.5647 68.5509 13.8867 68.8122 14.288C69.0829 14.6893 69.2555 15.1187 69.3302 15.576L68.2522 15.8C68.2055 15.464 68.0935 15.156 67.9162 14.876C67.7482 14.596 67.5102 14.372 67.2022 14.204C66.8942 14.036 66.5162 13.952 66.0682 13.952C65.6109 13.952 65.2002 14.0547 64.8362 14.26C64.4815 14.4653 64.1969 14.7593 63.9822 15.142C63.7769 15.5247 63.6742 15.982 63.6742 16.514V16.64C63.6742 17.172 63.7769 17.6293 63.9822 18.012C64.1969 18.3947 64.4815 18.6887 64.8362 18.894C65.2002 19.0993 65.6109 19.202 66.0682 19.202C66.7495 19.202 67.2675 19.0247 67.6222 18.67C67.9862 18.3153 68.2102 17.8767 68.2942 17.354L69.3862 17.592C69.2835 18.04 69.0969 18.4647 68.8262 18.866C68.5555 19.2673 68.1869 19.5893 67.7202 19.832C67.2629 20.0747 66.7075 20.196 66.0542 20.196ZM71.2714 20V10.2H72.3774V14.246H72.5734C72.6667 14.0407 72.8067 13.8493 72.9934 13.672C73.1894 13.4853 73.4367 13.3313 73.7354 13.21C74.0434 13.0887 74.4307 13.028 74.8974 13.028C75.4107 13.028 75.868 13.14 76.2694 13.364C76.68 13.5787 77.0067 13.896 77.2494 14.316C77.492 14.7267 77.6134 15.24 77.6134 15.856V20H76.5074V15.94C76.5074 15.2587 76.3347 14.764 75.9894 14.456C75.6534 14.148 75.196 13.994 74.6174 13.994C73.9547 13.994 73.4134 14.2087 72.9934 14.638C72.5827 15.0673 72.3774 15.7067 72.3774 16.556V20H71.2714ZM83.411 20V10.2H89.333V11.264H84.587V14.554H88.955V15.618H84.587V20H83.411ZM91.0136 20V13.154H92.1196V20H91.0136ZM91.5736 12.09C91.3309 12.09 91.1256 12.0107 90.9576 11.852C90.7989 11.6933 90.7196 11.4927 90.7196 11.25C90.7196 10.998 90.7989 10.7927 90.9576 10.634C91.1256 10.4753 91.3309 10.396 91.5736 10.396C91.8162 10.396 92.0169 10.4753 92.1756 10.634C92.3342 10.7927 92.4136 10.998 92.4136 11.25C92.4136 11.4927 92.3342 11.6933 92.1756 11.852C92.0169 12.0107 91.8162 12.09 91.5736 12.09ZM94.4452 20V10.2H95.5512V20H94.4452ZM101.013 20.196C100.322 20.196 99.7155 20.0513 99.1928 19.762C98.6702 19.4633 98.2642 19.048 97.9748 18.516C97.6855 17.984 97.5408 17.368 97.5408 16.668V16.5C97.5408 15.7907 97.6855 15.17 97.9748 14.638C98.2642 14.106 98.6655 13.6953 99.1788 13.406C99.6922 13.1073 100.28 12.958 100.943 12.958C101.587 12.958 102.156 13.098 102.651 13.378C103.146 13.6487 103.533 14.0407 103.813 14.554C104.093 15.0673 104.233 15.6693 104.233 16.36V16.864H98.6468C98.6748 17.6013 98.9128 18.18 99.3608 18.6C99.8088 19.0107 100.369 19.216 101.041 19.216C101.629 19.216 102.082 19.0807 102.399 18.81C102.716 18.5393 102.959 18.2173 103.127 17.844L104.079 18.306C103.939 18.5953 103.743 18.8847 103.491 19.174C103.248 19.4633 102.926 19.706 102.525 19.902C102.133 20.098 101.629 20.196 101.013 20.196ZM98.6608 15.954H103.113C103.076 15.3193 102.856 14.8247 102.455 14.47C102.063 14.1153 101.559 13.938 100.943 13.938C100.318 13.938 99.8042 14.1153 99.4028 14.47C99.0015 14.8247 98.7542 15.3193 98.6608 15.954Z" fill="white"/>
</svg>
