<svg width="18" height="14" viewBox="0 0 18 14" fill="none" xmlns="http://www.w3.org/2000/svg">
<path d="M7.00028 0.341797C6.74441 0.341797 6.48825 0.441219 6.29325 0.636719L0.637 6.29297C0.246 6.68397 0.246 7.31703 0.637 7.70703L6.29325 13.3633C6.68425 13.7543 7.31731 13.7543 7.70731 13.3633L7.79325 13.2773C8.18425 12.8863 8.18425 12.2533 7.79325 11.8633L3.92997 8H17.0003C17.5523 8 18.0003 7.552 18.0003 7C18.0003 6.448 17.5523 6 17.0003 6H3.92997L7.79325 2.13672C8.18425 1.74572 8.18425 1.11266 7.79325 0.722656L7.70731 0.636719C7.51181 0.441219 7.25616 0.341797 7.00028 0.341797Z" fill="black"/>
</svg>
