<svg width="42" height="42" viewBox="0 0 42 42" fill="none" xmlns="http://www.w3.org/2000/svg">
<path d="M18 0C15.8783 0 13.8434 0.842854 12.3431 2.34315C10.8429 3.84344 10 5.87827 10 8C10 10.1217 10.8429 12.1566 12.3431 13.6569C13.8434 15.1571 15.8783 16 18 16C20.1217 16 22.1566 15.1571 23.6569 13.6569C25.1571 12.1566 26 10.1217 26 8C26 5.87827 25.1571 3.84344 23.6569 2.34315C22.1566 0.842854 20.1217 0 18 0ZM30 20C24.4 20 20 24.4 20 30C20 35.6 24.4 40 30 40C32 40 34.0016 39.3984 35.6016 38.3984L38.5859 41.4141C39.3679 42.1961 40.6341 42.1961 41.4141 41.4141C42.1961 40.6341 42.1961 39.3659 41.4141 38.5859L38.3984 35.6016C39.3984 34.0016 40 32 40 30C40 24.4 35.6 20 30 20ZM18.5039 22.0078C12.6959 21.8278 0 24.842 0 31V34C0 35.104 0.896 36 2 36H17.3672C16.5012 34.18 16 32.15 16 30C16 27.03 16.9318 24.2796 18.5078 22.0156L18.5039 22.0078ZM30 24C33.4 24 36 26.6 36 30C36 33.4 33.4 36 30 36C26.6 36 24 33.4 24 30C24 26.6 26.6 24 30 24Z" fill="white"/>
</svg>
