<svg width="40" height="34" viewBox="0 0 40 34" fill="none" xmlns="http://www.w3.org/2000/svg">
<path d="M20 0C18.9391 0 17.9217 0.421427 17.1716 1.17157C16.4214 1.92172 16 2.93913 16 4C16 5.06087 16.4214 6.07828 17.1716 6.82843C17.9217 7.57857 18.9391 8 20 8C21.0609 8 22.0783 7.57857 22.8284 6.82843C23.5786 6.07828 24 5.06087 24 4C24 2.93913 23.5786 1.92172 22.8284 1.17157C22.0783 0.421427 21.0609 0 20 0ZM18 12V17.1484L13.9258 21.0742L16.6992 23.9531L20 20.7773L23.3008 23.9531L26.0742 21.0742L22 17.1484V12H18ZM8 14C6.93913 14 5.92172 14.4214 5.17157 15.1716C4.42143 15.9217 4 16.9391 4 18C4 19.0609 4.42143 20.0783 5.17157 20.8284C5.92172 21.5786 6.93913 22 8 22C9.06087 22 10.0783 21.5786 10.8284 20.8284C11.5786 20.0783 12 19.0609 12 18C12 16.9391 11.5786 15.9217 10.8284 15.1716C10.0783 14.4214 9.06087 14 8 14ZM32 14C30.9391 14 29.9217 14.4214 29.1716 15.1716C28.4214 15.9217 28 16.9391 28 18C28 19.0609 28.4214 20.0783 29.1716 20.8284C29.9217 21.5786 30.9391 22 32 22C33.0609 22 34.0783 21.5786 34.8284 20.8284C35.5786 20.0783 36 19.0609 36 18C36 16.9391 35.5786 15.9217 34.8284 15.1716C34.0783 14.4214 33.0609 14 32 14ZM8 26C5.33 26 0 27.4416 0 30.1016V34H16V30.1016C16 27.4416 10.67 26 8 26ZM32 26C29.33 26 24 27.4416 24 30.1016V34H40V30.1016C40 27.4416 34.67 26 32 26Z" fill="white"/>
</svg>
