<svg width="36" height="40" viewBox="0 0 36 40" fill="none" xmlns="http://www.w3.org/2000/svg">
<path d="M32 4H23.632C22.806 1.674 20.608 0 18 0C15.392 0 13.194 1.674 12.368 4H4C1.79 4 0 5.79 0 8V36C0 38.21 1.79 40 4 40H32C34.21 40 36 38.21 36 36V8C36 5.79 34.21 4 32 4ZM18 4C19.104 4 20 4.896 20 6C20 7.104 19.104 8 18 8C16.896 8 16 7.104 16 6C16 4.896 16.896 4 18 4ZM18 14C20.266 14 22 15.734 22 18C22 20.266 20.266 22 18 22C15.734 22 14 20.266 14 18C14 15.734 15.734 14 18 14ZM25 30H11C10.448 30 10 29.552 10 29V28.434C10 25.818 13.63 24 18 24C22.37 24 26 25.818 26 28.434V29C26 29.552 25.552 30 25 30Z" fill="white"/>
</svg>
