<svg width="40" height="40" viewBox="0 0 40 40" fill="none" xmlns="http://www.w3.org/2000/svg">
<path d="M7.9997 0C6.93883 0 5.92141 0.421427 5.17127 1.17157C4.42112 1.92172 3.9997 2.93913 3.9997 4C3.9997 5.06087 4.42112 6.07828 5.17127 6.82843C5.92141 7.57857 6.93883 8 7.9997 8C9.06056 8 10.078 7.57857 10.8281 6.82843C11.5783 6.07828 11.9997 5.06087 11.9997 4C11.9997 2.93913 11.5783 1.92172 10.8281 1.17157C10.078 0.421427 9.06056 0 7.9997 0ZM31.9997 0C30.9388 0 29.9214 0.421427 29.1713 1.17157C28.4211 1.92172 27.9997 2.93913 27.9997 4C27.9997 5.06087 28.4211 6.07828 29.1713 6.82843C29.9214 7.57857 30.9388 8 31.9997 8C33.0606 8 34.078 7.57857 34.8281 6.82843C35.5783 6.07828 35.9997 5.06087 35.9997 4C35.9997 2.93913 35.5783 1.92172 34.8281 1.17157C34.078 0.421427 33.0606 0 31.9997 0ZM6.53095 12C4.55695 12 2.87592 13.4387 2.57392 15.3867L0.02704 29.3008C-0.174897 30.6024 0.738609 31.7748 1.9997 31.9609V38C1.9997 39.104 2.8957 40 3.9997 40C5.1037 40 5.9997 39.104 5.9997 38V32H9.9997V38C9.9997 39.104 10.8957 40 11.9997 40C13.1037 40 13.9997 39.104 13.9997 38V31.9609C15.2498 31.7767 16.1597 30.6215 15.9763 29.3281L14.6013 21.1445L17.8903 24.3125C19.0683 25.4485 20.933 25.4485 22.113 24.3125L25.3981 21.1484L24.0231 29.3281C23.8397 30.6215 24.7496 31.7767 25.9997 31.9609V38C25.9997 39.104 26.8957 40 27.9997 40C29.1037 40 29.9997 39.104 29.9997 38V32H33.9997V38C33.9997 39.104 34.8957 40 35.9997 40C37.1037 40 37.9997 39.104 37.9997 38V31.9609C39.2608 31.7748 40.1743 30.6024 39.9724 29.3008L37.4255 15.3867C37.1235 13.4367 35.4424 12 33.4684 12H30.3122C29.1613 12 28.1214 12.4994 27.3864 13.293L19.9997 20.3438L12.613 13.293C11.878 12.4994 10.8381 12 9.6872 12H6.53095Z" fill="white"/>
</svg>
