<svg width="40" height="40" viewBox="0 0 40 40" fill="none" xmlns="http://www.w3.org/2000/svg">
<path d="M20 0C17.8203 0 16 1.82031 16 4V6H13.625C12.625 6 11.8281 6.625 11.625 7.625L8.375 23.625C8.17188 24.8281 8.97656 26 10.375 26H29.625C30.8281 26 31.8281 24.8281 31.625 23.625L28.375 7.625C28.1719 6.625 27.375 6 26.375 6H24V4C24 1.82031 22.1797 0 20 0ZM20 2C21.0156 2 22 2.98438 22 4V6H18V4C18 2.98438 18.9844 2 20 2ZM17 8C17.6016 8 18 8.39844 18 9C18 9.60156 17.6016 10 17 10C16.3984 10 16 9.60156 16 9C16 8.39844 16.3984 8 17 8ZM23 8C23.6016 8 24 8.39844 24 9C24 9.60156 23.6016 10 23 10C22.3984 10 22 9.60156 22 9C22 8.39844 22.3984 8 23 8ZM7.625 18.1875L0 22.625V28.375L20 40L40 28.375V22.625L32.375 18.1875L33.1875 22L37.4375 24.5L20 34.625L2.5625 24.5L6.8125 22L7.625 18.1875Z" fill="white"/>
</svg>
