<svg width="48" height="32" viewBox="0 0 48 32" fill="none" xmlns="http://www.w3.org/2000/svg">
<path d="M24 0C22.1435 0 20.363 0.737498 19.0503 2.05025C17.7375 3.36301 17 5.14348 17 7C17 8.85652 17.7375 10.637 19.0503 11.9497C20.363 13.2625 22.1435 14 24 14C25.8565 14 27.637 13.2625 28.9497 11.9497C30.2625 10.637 31 8.85652 31 7C31 5.14348 30.2625 3.36301 28.9497 2.05025C27.637 0.737498 25.8565 0 24 0ZM9 6C7.67392 6 6.40215 6.52678 5.46447 7.46447C4.52678 8.40215 4 9.67392 4 11C4 11.6566 4.12933 12.3068 4.3806 12.9134C4.63188 13.52 5.00017 14.0712 5.46447 14.5355C6.40215 15.4732 7.67392 16 9 16C9.65661 16 10.3068 15.8707 10.9134 15.6194C11.52 15.3681 12.0712 14.9998 12.5355 14.5355C12.9998 14.0712 13.3681 13.52 13.6194 12.9134C13.8707 12.3068 14 11.6566 14 11C14 10.3434 13.8707 9.69321 13.6194 9.08658C13.3681 8.47995 12.9998 7.92876 12.5355 7.46447C12.0712 7.00017 11.52 6.63188 10.9134 6.3806C10.3068 6.12933 9.65661 6 9 6ZM39 6C37.6739 6 36.4021 6.52678 35.4645 7.46447C34.5268 8.40215 34 9.67392 34 11C34 11.6566 34.1293 12.3068 34.3806 12.9134C34.6319 13.52 35.0002 14.0712 35.4645 14.5355C36.4021 15.4732 37.6739 16 39 16C39.6566 16 40.3068 15.8707 40.9134 15.6194C41.52 15.3681 42.0712 14.9998 42.5355 14.5355C42.9998 14.0712 43.3681 13.52 43.6194 12.9134C43.8707 12.3068 44 11.6566 44 11C44 9.67392 43.4732 8.40215 42.5355 7.46447C41.5979 6.52678 40.3261 6 39 6ZM24 18C19.328 18 10 20.346 10 25V30C10 31.104 10.896 32 12 32H36C37.104 32 38 31.104 38 30V25C38 20.346 28.672 18 24 18ZM7.79688 20.1055C4.63488 20.5935 0 22.7782 0 25.4102V30C0 31.104 0.896 32 2 32H6V25C6 23.078 6.69088 21.4655 7.79688 20.1055ZM40.2031 20.1055C41.3091 21.4655 42 23.078 42 25V32H46C47.104 32 48 31.104 48 30V25.4102C48 22.7782 43.3651 20.5935 40.2031 20.1055Z" fill="white"/>
</svg>
