<svg width="110" height="40" viewBox="0 0 110 40" fill="none" xmlns="http://www.w3.org/2000/svg">
<rect x="0.625977" width="31.9014" height="31.9014" rx="15.9507" fill="white"/>
<g clip-path="url(#clip0_855_3186)">
<path d="M8.65788 19.7347C10.4499 19.7347 11.9027 18.2958 11.9027 16.5208C11.9027 14.7458 10.4499 13.3069 8.65788 13.3069C6.86583 13.3069 5.41309 14.7458 5.41309 16.5208C5.41309 18.2958 6.86583 19.7347 8.65788 19.7347Z" fill="black"/>
<path d="M22.4463 21.055C25.2924 21.055 27.5996 18.7698 27.5996 15.9508C27.5996 13.1318 25.2924 10.8466 22.4463 10.8466C19.6002 10.8466 17.293 13.1318 17.293 15.9508C17.293 18.7698 19.6002 21.055 22.4463 21.055Z" fill="black"/>
<path d="M9.34403 14.3503C10.9079 16.3566 12.7156 17.0329 14.6534 16.9878C16.6627 16.9427 18.8573 16.1344 21.0812 15.2134L21.4941 16.1988C19.1727 17.1585 16.8708 18.0022 14.6729 18.0505C12.4067 18.102 10.3032 17.3227 8.49219 14.9976L9.34403 14.3471V14.3503Z" fill="black"/>
</g>
<path d="M42.9251 5.06594V25.4802L55.4837 25.3984C55.4447 30.4265 55.8907 29.8812 50.2569 29.8812H37.7432C37.7432 22.3099 37.7432 15.8154 37.7432 8.25962C37.7432 8.20705 37.7432 8.15252 37.7432 8.09994C37.7432 4.36684 40.0664 5.06789 42.9251 5.06789V5.06594Z" fill="white"/>
<path d="M104.393 21.8269C104.393 20.4112 104.064 19.1551 103.414 18.0627C102.763 16.9741 101.704 16.4288 100.242 16.4288C98.4791 16.4288 97.2698 17.2584 96.6136 18.9098C96.2747 19.7841 96.1014 20.9019 96.1014 22.2495C96.1014 24.3916 96.6778 25.893 97.8229 26.7577C98.5025 27.264 99.3087 27.5171 100.242 27.5171C101.589 27.5171 102.619 26.9991 103.328 25.9631C104.037 24.9271 104.393 23.5503 104.393 21.8289V21.8269ZM101.618 12.2128C103.772 12.2128 105.597 13.0073 107.092 14.5905C108.584 16.1737 109.332 18.5047 109.332 21.5738C109.332 24.8083 108.6 27.2795 107.139 28.9777C104.565 31.9688 97.4646 33.0301 96.0683 29.1841C97.2231 36.2511 95.562 41.1877 91.8289 39.7505L91.4608 19.0967C91.4238 16.9955 91.048 14.1913 93.081 12.9197L96.1384 12.5925V15.3383C96.6564 14.5379 97.2095 13.905 97.7956 13.4435C98.8667 12.6198 100.138 12.2108 101.618 12.2108V12.2128Z" fill="white"/>
<path fill-rule="evenodd" clip-rule="evenodd" d="M64.6693 12.462C69.5144 12.462 73.4442 16.458 73.4578 21.3907C73.3838 21.4024 73.3098 21.4141 73.2358 21.4238C72.2387 21.5621 71.2261 21.5387 70.2115 21.3576C69.1911 21.1746 68.1687 20.8338 67.1581 20.3372L67.0724 20.2943C66.6498 19.3908 65.7326 18.7657 64.6713 18.7657C63.2069 18.7657 62.0209 19.9516 62.0209 21.416C62.0209 22.8805 63.2088 24.0664 64.6713 24.0664C66.0948 24.0664 67.2574 22.9428 67.3197 21.5348C68.2096 21.9107 69.1074 22.1794 70.0032 22.3391C71.1385 22.5397 72.2777 22.565 73.4052 22.4092C72.9203 26.8881 69.1931 30.37 64.6713 30.37C59.8165 30.37 55.8828 26.3604 55.8828 21.416C55.8828 16.4717 59.8165 12.462 64.6713 12.462H64.6693Z" fill="white"/>
<path fill-rule="evenodd" clip-rule="evenodd" d="M81.95 12.462C86.8048 12.462 90.7385 16.4717 90.7385 21.416C90.7385 26.3623 86.8048 30.37 81.95 30.37C77.6483 30.37 74.069 27.2211 73.3096 23.0616C73.3485 22.8473 73.3797 22.6292 73.405 22.4092L73.4186 22.4072C74.5208 22.2553 75.6075 21.9321 76.6688 21.4336C76.6785 24.3429 79.0407 26.6992 81.952 26.6992C84.8691 26.6992 87.2352 24.3332 87.2352 21.416C87.2352 18.4989 84.8691 16.1328 81.952 16.1328C79.4516 16.1328 77.3562 17.8718 76.809 20.2048C76.6201 20.3099 76.4293 20.4092 76.2384 20.5008C75.327 20.9409 74.3981 21.2369 73.4615 21.3888C73.4595 20.8357 73.4089 20.2943 73.3135 19.7686C74.0729 15.6109 77.6522 12.4601 81.9539 12.4601L81.95 12.462Z" fill="white"/>
<defs>
<clipPath id="clip0_855_3186">
<rect width="22.331" height="10.2085" fill="white" transform="translate(5.41113 10.8466)"/>
</clipPath>
</defs>
</svg>
