<svg width="198" height="54" viewBox="0 0 198 54" fill="none" xmlns="http://www.w3.org/2000/svg">
<path d="M129.835 16.4501C125.314 9.93458 118.617 5.89486 111.446 4.63042C104.27 3.36598 96.6182 4.87682 90.1954 9.46392C88.8326 10.4362 87.5643 11.5221 86.4052 12.704C85.2489 13.8843 84.1857 15.1768 83.2301 16.5681L80.3692 14.5512C81.4266 13.0108 82.6236 11.5605 83.9413 10.2164C85.2547 8.87818 86.6786 7.658 88.1941 6.57504C95.4038 1.42579 103.988 -0.270947 112.034 1.14694C120.087 2.5663 127.608 7.10176 132.684 14.4169L129.836 16.4486L129.835 16.4501Z" fill="white"/>
<path d="M76.7658 27.2119C78.2703 27.2119 79.49 25.9747 79.49 24.4484C79.49 22.9222 78.2703 21.685 76.7658 21.685C75.2613 21.685 74.0416 22.9222 74.0416 24.4484C74.0416 25.9747 75.2613 27.2119 76.7658 27.2119Z" fill="white"/>
<path d="M163.58 31.4906C163.536 38.8316 163.275 46.1726 162.577 53.4694H169.073C169.116 44.5806 169.334 38.0356 169.901 31.4906H163.58Z" fill="white"/>
<path d="M169.901 27.7759L170.075 23.6189H163.798L163.711 27.7759H169.901Z" fill="white"/>
<path d="M6.88785 53.4694C7.06223 40.6447 7.41098 32.375 8.0213 23.9727H1.17704C1.17704 35.0266 0.642139 43.4063 0.10887 51.7604L0 53.4694H6.88785Z" fill="white"/>
<path d="M19.918 31.4906H13.8149C13.6841 40.0698 13.2481 46.7917 12.6378 53.4694H18.8718C18.8763 53.2621 18.8809 53.0083 18.8861 52.7159C18.9311 50.2006 19.0271 44.8309 19.6129 41.6619C20.2232 38.4778 22.0977 35.9129 25.5416 35.9129C28.724 35.9129 30.1626 37.4607 30.1626 40.6447C30.1626 44.8901 29.7267 49.224 29.16 53.4694H35.6119C35.6119 49.4194 35.8394 45.5342 36.0166 42.5083C36.1296 40.5786 36.2222 38.9976 36.2222 37.9471C36.2222 32.773 32.7347 30.9599 28.1137 30.9599C24.5826 30.9599 21.6182 32.0213 19.7872 35.0726H19.7001L19.918 31.4906Z" fill="white"/>
<path d="M41.87 31.4906H47.9731L47.7552 35.0726H47.8424C49.6733 32.0213 52.6377 30.9599 56.1688 30.9599C60.7898 30.9599 64.2773 32.773 64.2773 37.9471C64.2773 38.9975 64.1848 40.5776 64.0718 42.5072C63.8946 45.533 63.667 49.4195 63.667 53.4694H57.2151C57.7818 49.224 58.2177 44.8901 58.2177 40.6447C58.2177 37.4607 56.7791 35.9129 53.5968 35.9129C50.1528 35.9129 48.2783 38.4778 47.668 41.6619C47.0822 44.8309 46.9862 50.1999 46.9412 52.7152C46.936 53.0075 46.9314 53.2622 46.9269 53.4694H40.6929C41.3033 46.7917 41.7392 40.0698 41.87 31.4906Z" fill="white"/>
<path d="M68.1377 43.0328C68.1377 36.0825 72.4599 31.6646 78.8651 31.0371V35.4625C75.4999 36.2368 74.1973 39.5656 74.1973 43.1654C74.1973 46.7033 76.1154 49.6662 79.8645 49.6662C84.2239 49.6662 86.0113 45.9073 86.0113 41.9714C86.0113 39.5028 85.2817 37.3342 83.597 36.1787V31.2641C88.7217 32.3192 92.0708 36.0896 92.0708 42.1041C92.0708 46.3937 89.804 54.0001 79.7773 54.0001C70.9714 54.0001 68.1377 47.8089 68.1377 43.0328Z" fill="white"/>
<path d="M93.691 31.4906H99.9249L104.895 47.7204H104.982L111.172 31.4906H117.493C114.137 38.7431 110.911 46.0842 107.859 53.4694H101.276C99.5151 47.944 97.5831 42.4929 95.6445 37.0235L95.6433 37.02C94.9912 35.1801 94.3383 33.3382 93.691 31.4906Z" fill="white"/>
<path d="M129.339 31.052C123.013 31.7315 118.756 36.135 118.756 43.0328C118.756 47.8089 121.59 54.0001 130.396 54.0001C140.422 54.0001 142.689 46.3937 142.689 42.1041C142.689 36.0331 139.277 32.2486 134.071 31.2351V36.0834C135.858 37.2122 136.63 39.4332 136.63 41.9714C136.63 45.9073 134.842 49.6662 130.483 49.6662C126.734 49.6662 124.816 46.7033 124.816 43.1654C124.816 39.6177 126.081 36.3332 129.339 35.4977V31.052Z" fill="white"/>
<path d="M159.872 31.4906L159.698 35.8244H154.249C154.223 36.387 154.171 37.3676 154.109 38.5098C153.964 41.2282 153.769 44.8616 153.769 45.9515C153.769 47.8089 154.118 49.3124 156.036 49.3124C157.526 49.3124 158.252 49.1189 159.084 48.8971C159.226 48.8592 159.371 48.8205 159.524 48.7818L158.739 53.3367C157.126 53.779 155.513 54.0001 153.856 54.0001C149.759 54.0001 147.71 52.6292 147.71 48.2953C147.71 46.0399 148.32 36.7973 148.407 35.8244H145.356L145.53 31.4906H148.756L148.974 27.4663L154.598 26.228L154.423 31.4906H159.872Z" fill="white"/>
<path fill-rule="evenodd" clip-rule="evenodd" d="M173.845 43.0328C173.845 35.5149 178.902 30.9599 186.182 30.9599C193.026 30.9599 197.778 34.94 197.778 42.1041C197.778 46.3937 195.511 54.0001 185.484 54.0001C176.678 54.0001 173.845 47.8089 173.845 43.0328ZM191.718 41.9714C191.718 38.3009 190.105 35.2938 186.138 35.2938C181.604 35.2938 179.904 39.0527 179.904 43.1654C179.904 46.7033 181.822 49.6662 185.571 49.6662C189.931 49.6662 191.718 45.9073 191.718 41.9714Z" fill="white"/>
<path d="M130.499 24.6683C130.499 26.1945 129.279 27.4318 127.775 27.4318C126.27 27.4318 125.05 26.1945 125.05 24.6683C125.05 23.1421 126.27 21.9048 127.775 21.9048C129.279 21.9048 130.499 23.1421 130.499 24.6683Z" fill="white"/>
<path d="M86.1396 27.4318C87.6441 27.4318 88.8638 26.1945 88.8638 24.6683C88.8638 23.1421 87.6441 21.9048 86.1396 21.9048C84.6351 21.9048 83.4155 23.1421 83.4155 24.6683C83.4155 26.1945 84.6351 27.4318 86.1396 27.4318Z" fill="white"/>
<path d="M139.871 24.8896C139.871 26.4158 138.651 27.6531 137.147 27.6531C135.642 27.6531 134.423 26.4158 134.423 24.8896C134.423 23.3634 135.642 22.1261 137.147 22.1261C138.651 22.1261 139.871 23.3634 139.871 24.8896Z" fill="white"/>
<path d="M129.835 16.4501C125.314 9.93458 118.617 5.89486 111.446 4.63042C104.27 3.36598 96.6182 4.87682 90.1954 9.46392C88.8326 10.4362 87.5643 11.5221 86.4052 12.704C85.2489 13.8843 84.1857 15.1768 83.2301 16.5681L80.3692 14.5512C81.4266 13.0108 82.6236 11.5605 83.9413 10.2164C85.2547 8.87818 86.6786 7.658 88.1941 6.57504C95.4038 1.42579 103.988 -0.270947 112.034 1.14694C120.087 2.5663 127.608 7.10176 132.684 14.4169L129.836 16.4486L129.835 16.4501Z" fill="#FFCC00"/>
</svg>
